<svg width="175" height="58" viewBox="0 0 175 58" fill="none" xmlns="http://www.w3.org/2000/svg">
<path d="M107.188 57.6852H121.123V0H107.188V57.6852ZM82.7199 41.2384C82.7199 43.2639 81.0185 44.9653 78.9931 44.9653H70.8912C68.8657 44.9653 67.1644 43.2639 67.1644 41.2384V17.9861H53.2292V42.3727C53.2292 52.338 59.6296 57.6042 69.0278 57.6042H82.6389C91.3079 57.6042 96.5741 51.3657 96.5741 42.3727V17.9861H82.6389C82.7199 17.9861 82.7199 40.5093 82.7199 41.2384ZM161.065 17.9861V41.2384C161.065 43.2639 159.363 44.9653 157.338 44.9653H149.236C147.211 44.9653 145.509 43.2639 145.509 41.2384V17.9861H131.574V42.3727C131.574 52.338 137.975 57.6042 147.373 57.6042H160.984C169.653 57.6042 174.919 51.3657 174.919 42.3727V17.9861H161.065ZM27.5463 17.9861H18.6343C15.4745 17.9861 13.9352 18.7963 13.9352 18.7963V0H0V57.6042H13.8542V34.4329C13.8542 32.4074 15.5556 30.706 17.581 30.706H25.6829C27.7083 30.706 29.4097 32.4074 29.4097 34.4329V57.6852H43.3449V32.5694C43.3449 22.037 36.2963 17.9861 27.5463 17.9861Z" fill="white"/>
</svg>
